<?xml version="1.0" standalone="no"?>
<!DOCTYPE svg PUBLIC "-//W3C//DTD SVG 20010904//EN"
 "http://www.w3.org/TR/2001/REC-SVG-20010904/DTD/svg10.dtd">
<svg version="1.0" xmlns="http://www.w3.org/2000/svg"
 width="200.000000pt" height="100.000000pt" viewBox="0 0 200.000000 100.000000"
 preserveAspectRatio="xMidYMid meet">

<g transform="translate(0.000000,100.000000) scale(0.100000,-0.100000)"
fill="#000000" stroke="none">
<path d="M381 989 c0 -12 40 -50 207 -194 34 -30 42 -44 42 -71 l0 -34 104 0
c90 0 104 2 108 18 8 34 -4 50 -127 165 l-125 117 -74 0 c-40 0 -88 3 -105 6
-23 5 -31 3 -30 -7z"/>
<path d="M577 619 c-30 -18 -47 -65 -47 -134 0 -103 31 -142 105 -133 40 4 67
47 73 111 10 119 -57 199 -131 156z m53 -130 c0 -92 -3 -120 -12 -117 -9 3
-14 36 -16 108 -3 107 0 130 18 130 6 0 10 -44 10 -121z"/>
<path d="M368 608 c15 -15 17 -224 2 -233 -24 -15 -6 -25 45 -25 51 0 69 10
45 25 -5 3 -10 32 -10 63 1 50 2 55 14 40 21 -28 36 -21 36 17 0 24 -5 35 -15
35 -8 0 -15 -4 -15 -10 0 -5 -4 -10 -10 -10 -5 0 -10 20 -10 45 0 48 12 58 31
24 14 -26 31 -12 23 19 -6 20 -12 22 -77 22 -55 0 -68 -3 -59 -12z"/>
<path d="M735 485 l0 -135 42 0 41 0 -5 60 c-5 51 -3 60 11 60 12 0 16 -10 16
-44 0 -65 7 -76 47 -76 32 0 35 2 29 23 -3 12 -6 34 -6 49 0 15 -7 34 -16 42
-14 15 -14 18 5 42 26 34 26 54 0 88 -19 24 -27 26 -92 26 l-72 0 0 -135z
m103 65 c-4 -67 -22 -69 -26 -2 -2 42 0 52 13 52 13 0 15 -10 13 -50z"/>
<path d="M930 610 c0 -5 5 -10 10 -10 6 0 10 -43 10 -109 0 -63 -4 -112 -10
-116 -26 -16 -4 -25 60 -25 66 0 70 1 76 26 10 38 -12 54 -27 21 -20 -43 -29
-31 -29 36 1 54 2 60 14 45 21 -28 36 -21 36 17 0 24 -5 35 -15 35 -8 0 -15
-4 -15 -10 0 -5 -4 -10 -10 -10 -5 0 -10 20 -10 45 0 48 12 58 31 24 14 -26
31 -12 23 19 -6 20 -12 22 -75 22 -39 0 -69 -4 -69 -10z"/>
<path d="M1840 596 c0 -32 18 -43 22 -14 2 12 9 23 16 26 9 3 12 -14 12 -65 0
-52 6 -83 27 -130 15 -35 30 -63 33 -63 3 0 4 60 2 132 -2 120 -1 131 12 114
9 -10 17 -24 19 -30 8 -22 19 3 13 29 -6 24 -9 25 -81 25 -73 0 -75 -1 -75
-24z"/>
<path d="M10 479 c0 -12 348 -473 361 -477 5 -2 35 19 66 47 31 28 61 51 65
51 25 0 -6 49 -129 203 -75 95 -141 175 -147 179 -18 12 -216 10 -216 -3z"/>
</g>
</svg>
